<?xml version="1.0" encoding="UTF-8"?>
<svg xmlns="http://www.w3.org/2000/svg" xmlns:xlink="http://www.w3.org/1999/xlink" version="1.1" viewBox="0 0 1920 1080">
  <defs>
    <style>
      .cls-1 {
        fill: none;
      }

      .cls-2 {
        fill: url(#linear-gradient-5);
      }

      .cls-3 {
        fill: url(#linear-gradient-6);
      }

      .cls-4 {
        fill: url(#linear-gradient-4);
      }

      .cls-5 {
        fill: url(#linear-gradient-3);
      }

      .cls-6 {
        fill: url(#linear-gradient-2);
      }

      .cls-7 {
        fill: url(#linear-gradient);
      }

      .cls-8 {
        fill: #292f62;
      }

      .cls-9 {
        clip-path: url(#clippath-17);
      }

      .cls-10 {
        clip-path: url(#clippath-19);
      }

      .cls-11 {
        clip-path: url(#clippath-11);
      }

      .cls-12 {
        clip-path: url(#clippath-16);
      }

      .cls-13 {
        clip-path: url(#clippath-18);
      }

      .cls-14 {
        clip-path: url(#clippath-10);
      }

      .cls-15 {
        clip-path: url(#clippath-15);
      }

      .cls-16 {
        clip-path: url(#clippath-13);
      }

      .cls-17 {
        clip-path: url(#clippath-14);
      }

      .cls-18 {
        clip-path: url(#clippath-12);
      }

      .cls-19 {
        clip-path: url(#clippath-20);
      }

      .cls-20 {
        clip-path: url(#clippath-1);
      }

      .cls-21 {
        clip-path: url(#clippath-3);
      }

      .cls-22 {
        clip-path: url(#clippath-4);
      }

      .cls-23 {
        clip-path: url(#clippath-2);
      }

      .cls-24 {
        clip-path: url(#clippath-7);
      }

      .cls-25 {
        clip-path: url(#clippath-6);
      }

      .cls-26 {
        clip-path: url(#clippath-9);
      }

      .cls-27 {
        clip-path: url(#clippath-8);
      }

      .cls-28 {
        clip-path: url(#clippath-5);
      }

      .cls-29 {
        fill: #fff;
      }

      .cls-30 {
        fill: #3f529f;
      }

      .cls-31 {
        fill: #cfd0d2;
      }

      .cls-32 {
        clip-path: url(#clippath);
      }
    </style>
    <clipPath id="clippath">
      <rect class="cls-1" x="0" width="1920" height="1080"/>
    </clipPath>
    <clipPath id="clippath-1">
      <rect class="cls-1" y="-.02" width="1920" height="1080"/>
    </clipPath>
    <clipPath id="clippath-2">
      <rect class="cls-1" x="-8" y="971" width="1938" height="119"/>
    </clipPath>
    <clipPath id="clippath-3">
      <rect class="cls-1" x="0" width="1920" height="1080"/>
    </clipPath>
    <clipPath id="clippath-4">
      <rect class="cls-1" y="-.02" width="1920" height="1080"/>
    </clipPath>
    <linearGradient id="linear-gradient" x1="0" y1="1510.02" x2="1940" y2="1510.02" gradientTransform="translate(-9 2050) scale(1 -1)" gradientUnits="userSpaceOnUse">
      <stop offset="0" stop-color="#142467"/>
      <stop offset=".08" stop-color="#172a79"/>
      <stop offset=".26" stop-color="#2038a0"/>
      <stop offset=".41" stop-color="#2541b9"/>
      <stop offset=".5" stop-color="#2745c2"/>
      <stop offset=".59" stop-color="#2541b9"/>
      <stop offset=".74" stop-color="#2038a0"/>
      <stop offset=".92" stop-color="#172a79"/>
      <stop offset="1" stop-color="#142467"/>
    </linearGradient>
    <clipPath id="clippath-5">
      <rect class="cls-1" x="0" width="1920" height="1080"/>
    </clipPath>
    <clipPath id="clippath-6">
      <rect class="cls-1" y="-.02" width="1920" height="1080"/>
    </clipPath>
    <clipPath id="clippath-7">
      <rect class="cls-1" x="1567" y="946" width="288.26" height="144"/>
    </clipPath>
    <clipPath id="clippath-8">
      <rect class="cls-1" x="0" width="1920" height="1080"/>
    </clipPath>
    <clipPath id="clippath-9">
      <rect class="cls-1" y="-.02" width="1920" height="1080"/>
    </clipPath>
    <clipPath id="clippath-10">
      <path class="cls-1" d="M1626.52,1028.56c-.77,0-1.4.63-1.4,1.39v.21c0,.77.63,1.4,1.4,1.4h1.81c.77,0,1.4-.63,1.4-1.4v-.21c0-.77-.63-1.39-1.4-1.39"/>
    </clipPath>
    <linearGradient id="linear-gradient-2" x1="0" y1="1080" x2="1" y2="1080" gradientTransform="translate(1652.92 -38343.79) rotate(-180) scale(36.46 -36.46)" gradientUnits="userSpaceOnUse">
      <stop offset="0" stop-color="#4353a0"/>
      <stop offset="1" stop-color="#90cadb"/>
    </linearGradient>
    <clipPath id="clippath-11">
      <path class="cls-1" d="M1620.23,1034.55c-.77,0-1.39.63-1.39,1.39v.22c0,.77.63,1.4,1.39,1.4h.28c.77,0,1.4-.63,1.4-1.4v-.22c0-.77-.63-1.39-1.4-1.39"/>
    </clipPath>
    <linearGradient id="linear-gradient-3" x1="0" y1="1080" x2="1" y2="1080" gradientTransform="translate(1653 -38337.8) rotate(180) scale(36.46 -36.46)" gradientUnits="userSpaceOnUse">
      <stop offset="0" stop-color="#4353a0"/>
      <stop offset="1" stop-color="#90cadb"/>
    </linearGradient>
    <clipPath id="clippath-12">
      <path class="cls-1" d="M1616.66,1046.28c-.69,0-1.26.57-1.26,1.26v.19c0,.69.57,1.26,1.26,1.26h2.7c.69,0,1.26-.57,1.26-1.26v-.19c0-.69-.57-1.26-1.26-1.26"/>
    </clipPath>
    <linearGradient id="linear-gradient-4" x1="0" y1="1080" x2="1" y2="1080" gradientTransform="translate(1653.19 -38326.22) rotate(-180) scale(36.46 -36.46)" gradientUnits="userSpaceOnUse">
      <stop offset="0" stop-color="#4353a0"/>
      <stop offset="1" stop-color="#90cadb"/>
    </linearGradient>
    <clipPath id="clippath-13">
      <path class="cls-1" d="M1625.75,1051.56c-.7,0-1.28.57-1.28,1.28v.2c0,.7.57,1.28,1.28,1.28h1.76c.7,0,1.28-.58,1.28-1.28v-.2c0-.7-.57-1.28-1.28-1.28"/>
    </clipPath>
    <linearGradient id="linear-gradient-5" x1="0" y1="1080" x2="1" y2="1080" gradientTransform="translate(1653.28 -38319.85) rotate(-180) scale(36.46 -36.46)" gradientUnits="userSpaceOnUse">
      <stop offset="0" stop-color="#4353a0"/>
      <stop offset="1" stop-color="#90cadb"/>
    </linearGradient>
    <clipPath id="clippath-14">
      <rect class="cls-1" x="1567" y="946" width="288.26" height="144"/>
    </clipPath>
    <clipPath id="clippath-15">
      <rect class="cls-1" x="0" width="1920" height="1080"/>
    </clipPath>
    <clipPath id="clippath-16">
      <rect class="cls-1" y="-.02" width="1920" height="1080"/>
    </clipPath>
    <clipPath id="clippath-17">
      <path class="cls-1" d="M1631.71,1028.56c-.77,0-1.39.63-1.39,1.39v.21c0,.77.63,1.4,1.39,1.4.89,0,1.78-.04,2.68-.04,1.93,0,1.92,3.11,0,3.11-3.44,0-6.88-.09-10.33-.09-.77,0-1.39.63-1.39,1.39v.22c0,.77.63,1.4,1.39,1.4h7.9c1.62.26,1.64,2.92-.22,2.92h-15.11c-.77,0-1.39.63-1.39,1.39v.22c0,.77.63,1.39,1.39,1.39,5.11,0,10.22,0,15.33,0,.77,0,1.4.63,1.4,1.39v.22c0,.39-.35,1.21-.77,1.21h-10.12c-.69,0-1.26.57-1.26,1.26v.19c0,.69.57,1.26,1.26,1.26h12.07c.66,0,1.2.54,1.2,1.2v.18c0,.52-.46,1.17-1,1.17h-3.96c-.7,0-1.28.57-1.28,1.28v.2c0,.7.57,1.28,1.28,1.28h5.53c4.29-2.77,7.14-7.58,7.14-13.07s-2.6-9.87-6.58-12.68"/>
    </clipPath>
    <linearGradient id="linear-gradient-6" x1="0" y1="1080" x2="1" y2="1080" gradientTransform="translate(1653.09 -38332.35) rotate(-180) scale(36.46 -36.46)" gradientUnits="userSpaceOnUse">
      <stop offset="0" stop-color="#4353a0"/>
      <stop offset="1" stop-color="#90cadb"/>
    </linearGradient>
    <clipPath id="clippath-18">
      <rect class="cls-1" x="1567" y="946" width="288.26" height="144"/>
    </clipPath>
    <clipPath id="clippath-19">
      <rect class="cls-1" x="0" width="1920" height="1080"/>
    </clipPath>
    <clipPath id="clippath-20">
      <rect class="cls-1" y="-.02" width="1920" height="1080"/>
    </clipPath>
  </defs>
  <!-- Generator: Adobe Illustrator 28.7.2, SVG Export Plug-In . SVG Version: 1.2.0 Build 154)  -->
  <g>
    <g id="Layer_1">
      <g class="cls-32">
        <g class="cls-20">
          <rect class="cls-29" y="-.02" width="1920" height="1080"/>
        </g>
      </g>
      <g class="cls-23">
        <g class="cls-21">
          <g class="cls-22">
            <rect class="cls-7" y="-.02" width="1920" height="1080"/>
          </g>
        </g>
      </g>
      <g class="cls-28">
        <g class="cls-25">
          <rect class="cls-29" x="1567" y="946" width="288.26" height="133.99"/>
        </g>
      </g>
      <g class="cls-24">
        <g class="cls-27">
          <g class="cls-26">
            <path class="cls-8" d="M1615.86,970.63h8.78l9.01,45.03h-7.62l-1.78-10.4h-7.84l-1.83,10.4h-7.73M1623.37,1000.04l-3.06-18.9-3.06,18.9h6.12Z"/>
            <rect class="cls-8" x="1638.37" y="970.63" width="8.12" height="45.03"/>
            <path class="cls-30" d="M1666.96,1002.54l7.06-1.39c.22,5.34,1.5,8.78,5.11,8.78,2.61,0,3.73-1.78,3.73-4.23,0-3.89-2-6.06-4.95-8.62l-5.67-4.95c-3.22-2.78-5.23-5.89-5.23-10.9,0-7.12,4.45-11.12,11.62-11.12,8.45,0,10.84,5.67,11.29,12.23l-7.06,1.22c-.17-4.22-.78-7.39-4.39-7.39-2.45,0-3.78,1.83-3.78,4.22,0,3.06,1.28,4.73,3.67,6.78l5.61,4.95c3.67,3.17,6.73,7.12,6.73,13.06,0,6.5-4.56,11.06-11.29,11.06-8.23,0-12.12-4.78-12.45-13.73"/>
            <path class="cls-30" d="M1702.2,970.63h8.78l9.01,45.03h-7.62l-1.78-10.4h-7.84l-1.83,10.4h-7.73M1709.71,1000.04l-3.06-18.9-3.06,18.9h6.11Z"/>
            <polyline class="cls-30" points="1724.44 970.63 1742.95 970.63 1742.95 976.3 1732.61 976.3 1732.61 989.43 1741.06 989.43 1741.06 995.15 1732.61 995.15 1732.61 1015.67 1724.44 1015.67"/>
            <polyline class="cls-30" points="1747.29 970.63 1766.19 970.63 1766.19 976.41 1755.46 976.41 1755.46 989.37 1763.91 989.37 1763.91 995.1 1755.46 995.1 1755.46 1010.05 1766.3 1010.05 1766.3 1015.67 1747.29 1015.67"/>
            <polyline class="cls-30" points="1776.97 976.69 1769.8 976.69 1769.8 970.63 1792.2 970.63 1792.2 976.69 1785.2 976.69 1785.2 1015.67 1776.97 1015.67"/>
            <polyline class="cls-30" points="1803.99 998.49 1794.87 970.63 1802.54 970.63 1808.1 988.48 1813.33 970.63 1820.83 970.63 1811.82 998.49 1811.82 1015.67 1803.99 1015.67"/>
            <polyline class="cls-8" points="1668.71 1027.51 1680.6 1027.51 1680.6 1031.15 1673.96 1031.15 1673.96 1039.58 1679.39 1039.58 1679.39 1043.26 1673.96 1043.26 1673.96 1056.43 1668.71 1056.43"/>
            <path class="cls-8" d="M1692.6,1047.36v-10.86c0-5.86,2.14-9.32,8.36-9.32s8.32,3.46,8.32,9.32v10.86c0,5.82-2.14,9.46-8.32,9.46s-8.36-3.61-8.36-9.46M1703.93,1048.61v-13.32c0-2.43-.39-4.25-2.96-4.25s-3,1.82-3,4.25v13.32c0,2.39.39,4.32,3,4.32s2.96-1.93,2.96-4.32"/>
            <path class="cls-8" d="M1722.78,1027.5h6.96c5.79,0,9.07,1.86,9.07,7.68,0,3.46-.86,5.89-3.57,7l4.04,14.25h-5.28l-3.47-13.25h-2.5v13.25h-5.25M1729.71,1039.9c3.04,0,4.14-1.32,4.14-4.43,0-2.93-.82-4.36-3.86-4.36h-1.96v8.78h1.68Z"/>
            <path class="cls-8" d="M1752.21,1047.08v-19.57h5.14v20.18c0,2.75.32,5.21,3,5.21s3.04-2.47,3.04-5.21v-20.18h5.11v19.57c0,6.07-1.68,9.75-8.14,9.75s-8.14-3.68-8.14-9.75"/>
            <polyline class="cls-8" points="1782.68 1027.51 1788.14 1027.51 1792.25 1047.54 1796.49 1027.51 1801.82 1027.51 1802.35 1056.43 1798.42 1056.43 1798 1036.33 1793.89 1056.43 1790.71 1056.43 1786.53 1036.26 1786.14 1056.43 1782.18 1056.43"/>
            <path class="cls-8" d="M1629.49,1053.03v-.2c0-.7.58-1.28,1.28-1.28h3.97c.55,0,1-.65,1-1.17v-.18c0-.66-.54-1.2-1.2-1.2h-12.07c-.69,0-1.26-.57-1.26-1.26v-.19c0-.69.57-1.26,1.26-1.26h10.12c.42,0,.77-.82.77-1.21v-.21c0-.77-.63-1.4-1.39-1.4-5.11,0-10.22,0-15.34,0-.77,0-1.39-.63-1.39-1.4v-.21c0-.77.63-1.4,1.39-1.4h15.11c1.86,0,1.84-2.65.22-2.91h-7.9c-.77,0-1.39-.63-1.39-1.4v-.21c0-.77.63-1.39,1.39-1.39,3.45,0,6.89.09,10.33.09,1.92,0,1.93-3.11,0-3.11-.89,0-1.79.04-2.68.04-.77,0-1.39-.63-1.39-1.4v-.21c0-.77.63-1.4,1.39-1.4h5.15s0,0,0,0c-2.53-1.79-5.62-2.85-8.96-2.85s-6.42,1.06-8.96,2.85c-1.44,1.02-2.69,2.27-3.71,3.71-1.8,2.54-2.87,5.63-2.87,8.98s1.07,6.44,2.87,8.98c1.15,1.62,2.6,3.01,4.28,4.09,2.42,1.56,5.3,2.48,8.39,2.48s5.97-.92,8.4-2.48h-5.52c-.7,0-1.28-.58-1.28-1.28"/>
          </g>
        </g>
      </g>
      <g class="cls-14">
        <rect class="cls-6" x="1625.1" y="1028.53" width="4.65" height="3.07" transform="translate(-15.58 25.04) rotate(-.88)"/>
      </g>
      <g class="cls-11">
        <rect class="cls-5" x="1618.81" y="1034.53" width="3.11" height="3.05" transform="translate(-15.68 24.94) rotate(-.88)"/>
      </g>
      <g class="cls-18">
        <rect class="cls-4" x="1615.38" y="1046.25" width="5.26" height="2.79" transform="translate(-15.85 24.9) rotate(-.88)"/>
      </g>
      <g class="cls-16">
        <rect class="cls-2" x="1624.45" y="1051.52" width="4.36" height="2.82" transform="translate(-15.94 25.04) rotate(-.88)"/>
      </g>
      <g class="cls-17">
        <g class="cls-15">
          <g class="cls-12">
            <path class="cls-8" d="M1643.44,1041.24c0-5.24-2.6-9.87-6.58-12.68h-5.15c-.77,0-1.39.63-1.39,1.4v.21c0,.77.63,1.39,1.39,1.39.88,0,1.78-.04,2.68-.04,1.93,0,1.92,3.11,0,3.11-3.44,0-6.88-.09-10.33-.09-.77,0-1.39.63-1.39,1.39v.21c0,.77.63,1.4,1.39,1.4h7.9c1.62.26,1.64,2.91-.22,2.91h-15.11c-.77,0-1.39.63-1.39,1.4v.21c0,.77.63,1.39,1.39,1.39,5.11,0,10.23,0,15.34,0,.77,0,1.39.63,1.39,1.39v.21c0,.39-.35,1.21-.77,1.21h-10.12c-.69,0-1.26.57-1.26,1.26v.19c0,.69.57,1.26,1.26,1.26h12.07c.66,0,1.2.54,1.2,1.2v.18c0,.52-.46,1.17-1,1.17h-3.97c-.7,0-1.28.58-1.28,1.28v.2c0,.7.58,1.28,1.28,1.28h5.52c4.29-2.76,7.14-7.58,7.14-13.06"/>
          </g>
        </g>
      </g>
      <g class="cls-9">
        <rect class="cls-3" x="1615.03" y="1028.35" width="28.6" height="26.18" transform="translate(-15.76 25.07) rotate(-.88)"/>
      </g>
      <g class="cls-13">
        <g class="cls-10">
          <g class="cls-19">
            <rect class="cls-31" x="1656.46" y="970.23" width="2.48" height="86.68"/>
          </g>
        </g>
      </g>
    </g>
  </g>
</svg>