<?xml version="1.0" encoding="UTF-8"?>
<svg xmlns="http://www.w3.org/2000/svg" xmlns:xlink="http://www.w3.org/1999/xlink" version="1.1" viewBox="45 65 200 90">
  <defs>
    <style>
      .cls-1 {
        fill: none;
      }

      .cls-2 {
        fill: #001e69;
      }

      .cls-3 {
        fill: url(#linear-gradient-5);
      }

      .cls-4 {
        fill: url(#linear-gradient-4);
      }

      .cls-5 {
        fill: url(#linear-gradient-3);
      }

      .cls-6 {
        fill: url(#linear-gradient-2);
      }

      .cls-7 {
        fill: url(#linear-gradient);
      }

      .cls-8 {
        fill: #ccc;
      }

      .cls-9 {
        clip-path: url(#clippath-1);
      }

      .cls-10 {
        clip-path: url(#clippath-3);
      }

      .cls-11 {
        clip-path: url(#clippath-4);
      }

      .cls-12 {
        clip-path: url(#clippath-2);
      }

      .cls-13 {
        fill: #0044c6;
      }

      .cls-14 {
        clip-path: url(#clippath);
      }
    </style>
    <clipPath id="clippath">
      <path class="cls-1" d="M62.14,123.55h1.67c.71,0,1.29.58,1.29,1.29v.2c0,.71-.58,1.29-1.29,1.29h-1.67c-.71,0-1.28-.58-1.28-1.28v-.2c0-.71.58-1.28,1.28-1.28Z"/>
    </clipPath>
    <linearGradient id="linear-gradient" x1="0" y1="226.77" x2="1" y2="226.77" gradientTransform="translate(86.46 7741.74) rotate(180) scale(33.59)" gradientUnits="userSpaceOnUse">
      <stop offset="0" stop-color="blue"/>
      <stop offset="1" stop-color="aqua"/>
    </linearGradient>
    <clipPath id="clippath-1">
      <path class="cls-1" d="M56.34,129.07h.25c.71,0,1.29.58,1.29,1.29v.2c0,.71-.58,1.28-1.28,1.28h-.26c-.71,0-1.28-.58-1.28-1.28v-.2c0-.71.58-1.28,1.28-1.28Z"/>
    </clipPath>
    <linearGradient id="linear-gradient-2" x1="0" y1="226.77" x2="1" y2="226.77" gradientTransform="translate(86.55 7747.26) rotate(180) scale(33.59)" gradientUnits="userSpaceOnUse">
      <stop offset="0" stop-color="blue"/>
      <stop offset="1" stop-color="aqua"/>
    </linearGradient>
    <clipPath id="clippath-2">
      <path class="cls-1" d="M53.06,139.88h2.49c.64,0,1.16.52,1.16,1.16v.18c0,.64-.52,1.16-1.16,1.16h-2.49c-.64,0-1.16-.52-1.16-1.16v-.18c0-.64.52-1.16,1.16-1.16Z"/>
    </clipPath>
    <linearGradient id="linear-gradient-3" x1="0" y1="226.77" x2="1" y2="226.77" gradientTransform="translate(86.71 7758.16) rotate(-180) scale(33.59)" gradientUnits="userSpaceOnUse">
      <stop offset="0" stop-color="blue"/>
      <stop offset="1" stop-color="aqua"/>
    </linearGradient>
    <clipPath id="clippath-3">
      <rect class="cls-1" x="60.25" y="144.73" width="3.98" height="2.54" rx="1.18" ry="1.18"/>
    </clipPath>
    <linearGradient id="linear-gradient-4" x1="0" y1="226.77" x2="1" y2="226.77" gradientTransform="translate(86.79 7762.81) rotate(180) scale(33.59)" gradientUnits="userSpaceOnUse">
      <stop offset="0" stop-color="blue"/>
      <stop offset="1" stop-color="aqua"/>
    </linearGradient>
    <clipPath id="clippath-4">
      <path class="cls-1" d="M66.92,123.55c-.71,0-1.29.58-1.29,1.28v.2c0,.71.58,1.29,1.29,1.29.81,0,1.64-.03,2.47-.03,1.78,0,1.77,2.87,0,2.87-3.17,0-6.34-.08-9.52-.08-.71,0-1.29.58-1.29,1.28v.2c0,.71.58,1.29,1.29,1.29h7.27c1.49.24,1.51,2.68-.2,2.68h-13.92c-.71,0-1.29.58-1.29,1.28v.2c0,.71.58,1.29,1.29,1.29,4.71,0,9.42,0,14.13,0,.71,0,1.28.58,1.28,1.28v.2c0,.36-.32,1.12-.71,1.12h-9.32c-.64,0-1.16.52-1.16,1.16v.18c0,.64.52,1.16,1.16,1.16h11.12c.61,0,1.11.5,1.11,1.1v.17c0,.48-.42,1.08-.92,1.08h-3.65c-.65,0-1.18.53-1.18,1.18v.18c0,.65.53,1.18,1.18,1.18h5.09c3.96-2.55,6.58-6.98,6.58-12.04s-2.4-9.09-6.06-11.68h-4.74Z"/>
    </clipPath>
    <linearGradient id="linear-gradient-5" x1="0" y1="226.77" x2="1" y2="226.77" gradientTransform="translate(86.62 7752.21) rotate(180) scale(33.59)" gradientUnits="userSpaceOnUse">
      <stop offset="0" stop-color="blue"/>
      <stop offset="1" stop-color="aqua"/>
    </linearGradient>
  </defs>
  <!-- Generator: Adobe Illustrator 28.7.2, SVG Export Plug-In . SVG Version: 1.2.0 Build 154)  -->
  <g>
    <g id="Layer_1">
      <path class="cls-2" d="M52.32,70.18h8.09l8.3,41.49h-7.02l-1.64-9.58h-7.22l-1.69,9.58h-7.12M59.24,97.28l-2.82-17.42-2.82,17.42h5.63Z"/>
      <rect class="cls-2" x="73.06" y="70.18" width="7.48" height="41.49"/>
      <g>
        <path class="cls-13" d="M99.4,99.58l6.5-1.28c.21,4.92,1.38,8.09,4.71,8.09,2.41,0,3.43-1.64,3.43-3.89,0-3.59-1.85-5.58-4.56-7.94l-5.22-4.56c-2.97-2.56-4.81-5.43-4.81-10.04,0-6.56,4.1-10.24,10.71-10.24,7.79,0,9.99,5.22,10.4,11.27l-6.5,1.13c-.15-3.89-.72-6.81-4.05-6.81-2.25,0-3.48,1.69-3.48,3.89,0,2.82,1.18,4.35,3.38,6.25l5.17,4.56c3.38,2.92,6.2,6.56,6.2,12.04,0,5.99-4.2,10.19-10.4,10.19-7.58,0-11.17-4.4-11.47-12.65"/>
        <path class="cls-13" d="M131.87,70.18h8.09l8.3,41.49h-7.02l-1.64-9.58h-7.22l-1.69,9.58h-7.12M138.78,97.28l-2.82-17.42-2.82,17.42h5.63Z"/>
        <polyline class="cls-13" points="152.35 70.18 169.41 70.18 169.41 75.4 159.88 75.4 159.88 87.49 167.67 87.49 167.67 92.77 159.88 92.77 159.88 111.67 152.35 111.67"/>
        <polyline class="cls-13" points="173.4 70.18 190.82 70.18 190.82 75.51 180.93 75.51 180.93 87.44 188.72 87.44 188.72 92.72 180.93 92.72 180.93 106.5 190.92 106.5 190.92 111.67 173.4 111.67"/>
        <polyline class="cls-13" points="200.75 75.76 194.14 75.76 194.14 70.18 214.79 70.18 214.79 75.76 208.33 75.76 208.33 111.67 200.75 111.67"/>
        <polyline class="cls-13" points="225.64 95.84 217.24 70.18 224.31 70.18 229.43 86.62 234.25 70.18 241.16 70.18 232.86 95.84 232.86 111.67 225.64 111.67"/>
        <polyline class="cls-2" points="101.01 122.58 111.97 122.58 111.97 125.93 105.85 125.93 105.85 133.7 110.85 133.7 110.85 137.09 105.85 137.09 105.85 149.23 101.01 149.23"/>
        <path class="cls-2" d="M123.03,140.87v-10c0-5.4,1.97-8.59,7.7-8.59s7.67,3.19,7.67,8.59v10c0,5.36-1.98,8.72-7.67,8.72s-7.7-3.32-7.7-8.72M133.46,142.02v-12.27c0-2.24-.36-3.91-2.73-3.91s-2.76,1.68-2.76,3.91v12.27c0,2.2.36,3.98,2.76,3.98s2.73-1.78,2.73-3.98"/>
        <path class="cls-2" d="M150.83,122.58h6.42c5.33,0,8.36,1.71,8.36,7.07,0,3.19-.79,5.43-3.29,6.45l3.72,13.13h-4.87l-3.19-12.21h-2.3v12.21h-4.84M157.21,133.99c2.8,0,3.82-1.22,3.82-4.08,0-2.7-.76-4.01-3.55-4.01h-1.81v8.09h1.55Z"/>
        <path class="cls-2" d="M177.94,140.61v-18.03h4.74v18.59c0,2.53.29,4.8,2.76,4.8s2.8-2.27,2.8-4.8v-18.59h4.71v18.03c0,5.59-1.55,8.98-7.5,8.98s-7.5-3.39-7.5-8.98"/>
        <polyline class="cls-2" points="206.01 122.58 211.04 122.58 214.82 141.03 218.74 122.58 223.64 122.58 224.14 149.23 220.52 149.23 220.12 130.7 216.34 149.23 213.41 149.23 209.56 130.64 209.2 149.23 205.55 149.23"/>
        <path class="cls-2" d="M64.87,146.09v-.18c0-.65.53-1.18,1.18-1.18h3.65c.5,0,.92-.6.92-1.08v-.17c0-.61-.5-1.1-1.1-1.1h-11.12c-.64,0-1.16-.52-1.16-1.16v-.18c0-.64.52-1.16,1.16-1.16h9.32c.39,0,.71-.76.71-1.11v-.2c0-.71-.58-1.29-1.28-1.29-4.71,0-9.42.01-14.13.01-.71,0-1.28-.58-1.28-1.29v-.2c0-.71.58-1.28,1.28-1.28h13.92c1.71,0,1.69-2.44.2-2.69h-7.28c-.71,0-1.28-.58-1.28-1.28v-.2c0-.71.58-1.28,1.28-1.28,3.18,0,6.35.08,9.52.08,1.77,0,1.78-2.87,0-2.87-.82,0-1.65.03-2.47.03-.71,0-1.28-.58-1.28-1.29v-.2c0-.71.58-1.28,1.28-1.28h4.74s0,0,0,0c-2.33-1.65-5.17-2.63-8.25-2.63s-5.92.98-8.25,2.63c-1.33.94-2.48,2.09-3.42,3.42-1.66,2.34-2.64,5.18-2.64,8.27s.99,5.93,2.64,8.27c1.06,1.49,2.4,2.77,3.94,3.77,2.23,1.44,4.88,2.28,7.73,2.28s5.5-.84,7.73-2.28h-5.09c-.65,0-1.18-.53-1.18-1.18"/>
      </g>
      <g class="cls-14">
        <rect class="cls-7" x="60.83" y="123.52" width="4.28" height="2.83" transform="translate(-1.91 .98) rotate(-.88)"/>
      </g>
      <g class="cls-9">
        <rect class="cls-6" x="55.03" y="129.05" width="2.87" height="2.81" transform="translate(-1.99 .88) rotate(-.88)"/>
      </g>
      <g class="cls-12">
        <rect class="cls-5" x="51.87" y="139.84" width="4.85" height="2.57" transform="translate(-2.15 .85) rotate(-.88)"/>
      </g>
      <g class="cls-10">
        <rect class="cls-4" x="60.23" y="144.7" width="4.02" height="2.6" transform="translate(-2.23 .97) rotate(-.88)"/>
      </g>
      <path class="cls-2" d="M77.72,135.23c0-4.83-2.4-9.09-6.06-11.68h-4.74c-.71,0-1.28.58-1.28,1.29v.2c0,.71.58,1.29,1.28,1.29.81,0,1.64-.03,2.47-.03,1.78,0,1.77,2.87,0,2.87-3.17,0-6.34-.08-9.52-.08-.71,0-1.28.58-1.28,1.28v.2c0,.71.58,1.29,1.28,1.29h7.28c1.49.24,1.51,2.68-.2,2.68h-13.92c-.71,0-1.28.58-1.28,1.29v.2c0,.71.58,1.29,1.28,1.29,4.71,0,9.42,0,14.13,0,.71,0,1.28.58,1.28,1.28v.2c0,.36-.32,1.12-.71,1.12h-9.32c-.64,0-1.16.52-1.16,1.16v.18c0,.64.52,1.16,1.16,1.16h11.12c.61,0,1.1.5,1.1,1.11v.17c0,.48-.42,1.08-.92,1.08h-3.65c-.65,0-1.18.53-1.18,1.18v.18c0,.65.53,1.18,1.18,1.18h5.09c3.96-2.55,6.58-6.98,6.58-12.04"/>
      <g class="cls-11">
        <rect class="cls-3" x="51.55" y="123.35" width="26.35" height="24.12" transform="translate(-2.07 1.01) rotate(-.88)"/>
      </g>
      <rect class="cls-8" x="89.72" y="69.8" width="2.28" height="79.86"/>
    </g>
  </g>
</svg>