<?xml version="1.0" encoding="UTF-8"?>
<svg xmlns="http://www.w3.org/2000/svg" xmlns:xlink="http://www.w3.org/1999/xlink" version="1.1" viewBox="0 0 1440 1080">
  <defs>
    <style>
      .cls-1, .cls-2 {
        fill: none;
      }

      .cls-3 {
        fill-rule: evenodd;
      }

      .cls-3, .cls-4 {
        fill: #fff;
      }

      .cls-5 {
        fill: url(#linear-gradient-8);
      }

      .cls-6 {
        fill: url(#linear-gradient-7);
      }

      .cls-7 {
        fill: url(#linear-gradient-5);
      }

      .cls-8 {
        fill: url(#linear-gradient-6);
      }

      .cls-9 {
        fill: url(#linear-gradient-9);
      }

      .cls-10 {
        fill: url(#linear-gradient-4);
      }

      .cls-11 {
        fill: url(#linear-gradient-3);
      }

      .cls-12 {
        fill: url(#linear-gradient-2);
      }

      .cls-13 {
        fill: url(#linear-gradient);
      }

      .cls-14 {
        fill: #292f62;
      }

      .cls-15 {
        clip-path: url(#clippath-17);
      }

      .cls-16 {
        clip-path: url(#clippath-19);
      }

      .cls-17 {
        clip-path: url(#clippath-11);
      }

      .cls-18 {
        clip-path: url(#clippath-16);
      }

      .cls-19 {
        clip-path: url(#clippath-18);
      }

      .cls-20 {
        clip-path: url(#clippath-10);
      }

      .cls-21 {
        clip-path: url(#clippath-15);
      }

      .cls-22 {
        clip-path: url(#clippath-13);
      }

      .cls-23 {
        clip-path: url(#clippath-14);
      }

      .cls-24 {
        clip-path: url(#clippath-12);
      }

      .cls-25 {
        clip-path: url(#clippath-31);
      }

      .cls-26 {
        clip-path: url(#clippath-32);
      }

      .cls-27 {
        clip-path: url(#clippath-33);
      }

      .cls-28 {
        clip-path: url(#clippath-30);
      }

      .cls-29 {
        clip-path: url(#clippath-27);
      }

      .cls-30 {
        clip-path: url(#clippath-29);
      }

      .cls-31 {
        clip-path: url(#clippath-26);
      }

      .cls-32 {
        clip-path: url(#clippath-28);
      }

      .cls-33 {
        clip-path: url(#clippath-20);
      }

      .cls-34 {
        clip-path: url(#clippath-21);
      }

      .cls-35 {
        clip-path: url(#clippath-22);
      }

      .cls-36 {
        clip-path: url(#clippath-23);
      }

      .cls-37 {
        clip-path: url(#clippath-24);
      }

      .cls-38 {
        clip-path: url(#clippath-25);
      }

      .cls-39 {
        clip-path: url(#clippath-1);
      }

      .cls-40 {
        clip-path: url(#clippath-3);
      }

      .cls-41 {
        clip-path: url(#clippath-4);
      }

      .cls-42 {
        clip-path: url(#clippath-2);
      }

      .cls-43 {
        clip-path: url(#clippath-7);
      }

      .cls-44 {
        clip-path: url(#clippath-6);
      }

      .cls-45 {
        clip-path: url(#clippath-9);
      }

      .cls-46 {
        clip-path: url(#clippath-8);
      }

      .cls-47 {
        clip-path: url(#clippath-5);
      }

      .cls-2 {
        clip-rule: evenodd;
      }

      .cls-48 {
        fill: #3f529f;
      }

      .cls-49 {
        fill: #cfd0d2;
      }

      .cls-50 {
        clip-path: url(#clippath);
      }
    </style>
    <clipPath id="clippath">
      <rect class="cls-1" x="0" width="1440" height="1080"/>
    </clipPath>
    <clipPath id="clippath-1">
      <rect class="cls-1" y="-.02" width="1440" height="1080"/>
    </clipPath>
    <clipPath id="clippath-2">
      <rect class="cls-1" x="-17" y="980" width="1472" height="119"/>
    </clipPath>
    <clipPath id="clippath-3">
      <rect class="cls-1" x="0" width="1440" height="1080"/>
    </clipPath>
    <clipPath id="clippath-4">
      <rect class="cls-1" y="-.02" width="1440" height="1080"/>
    </clipPath>
    <linearGradient id="linear-gradient" x1="0" y1="1519.02" x2="1474" y2="1519.02" gradientTransform="translate(-18 2059) scale(1 -1)" gradientUnits="userSpaceOnUse">
      <stop offset="0" stop-color="#142467"/>
      <stop offset=".08" stop-color="#172a79"/>
      <stop offset=".26" stop-color="#2038a0"/>
      <stop offset=".41" stop-color="#2541b9"/>
      <stop offset=".5" stop-color="#2745c2"/>
      <stop offset=".59" stop-color="#2541b9"/>
      <stop offset=".74" stop-color="#2038a0"/>
      <stop offset=".92" stop-color="#172a79"/>
      <stop offset="1" stop-color="#142467"/>
    </linearGradient>
    <clipPath id="clippath-5">
      <rect class="cls-1" x="0" width="1440" height="1080"/>
    </clipPath>
    <clipPath id="clippath-6">
      <rect class="cls-1" y="-.02" width="1440" height="1080"/>
    </clipPath>
    <clipPath id="clippath-7">
      <path class="cls-1" d="M1468.98,934.06c-10.2-7.64-21.05-14.52-32.39-20.55-11.31-6.09-23.12-11.31-35.21-15.93-6.09-2.12-12.18-4.39-18.42-6.12-3.11-.9-6.21-1.88-9.35-2.71l-9.45-2.35c-50.7-11.97-104.17-11.02-155.3-1.44l-9.58,1.91c-3.2.61-6.4,1.27-9.54,2.1l-18.95,4.69-18.68,5.55c-3.14.88-6.19,1.97-9.25,3.04l-9.2,3.18-9.19,3.2-9.04,3.55c-6.02,2.38-12.09,4.7-18.02,7.27-11.9,5.07-23.56,10.56-35.15,16.17-23.1,11.35-45.45,23.94-67.37,37.05-21.88,13.19-43.11,27.21-64.1,41.48-83.63,57.58-160.35,122.55-238.18,184.46-38.94,30.89-78.16,61.19-119.71,87.54-20.8,13.09-42.27,25.09-64.88,34.6-11.31,4.7-22.92,8.79-34.89,11.77-11.95,3.13-24.27,4.92-36.86,5.45,12.4,2.28,25.22,2.56,37.99,1.78,12.77-.92,25.49-3.09,37.95-6.19,24.98-6.16,48.94-15.72,72.09-26.55,46.21-22.01,89.16-49.42,130.88-77.78,83.23-57.13,161.66-119.17,243.04-175.26,20.29-14.06,40.82-27.7,61.64-40.67,10.36-6.58,20.85-12.89,31.39-19.08,10.56-6.16,21.23-12.05,31.92-17.89,10.73-5.71,21.53-11.31,32.48-16.47,3.03-1.45,6.08-2.82,9.14-4.18,2.46-1.1,4.92-2.19,7.37-3.34l8.26-3.76,8.37-3.42c22.29-9.27,45.11-17.16,68.36-23.21,46.42-12.26,94.85-17.61,142.96-12.25,12.05,1.17,23.95,3.43,35.87,5.92,11.86,2.71,23.59,6.12,35.18,10.14,11.56,4.08,22.95,8.85,33.99,14.46,11.09,5.54,21.86,11.86,31.91,19.42-8.18-9.63-17.98-17.81-28.06-25.59"/>
    </clipPath>
    <clipPath id="clippath-8">
      <polyline class="cls-1" points="2406.32 1955.89 619.72 2762.95 -521.69 236.19 1264.91 -570.87"/>
    </clipPath>
    <clipPath id="clippath-9">
      <polyline class="cls-2" points="1493.08 947.95 758.59 1279.78 671.72 1087.5 1406.21 755.67"/>
    </clipPath>
    <clipPath id="clippath-10">
      <rect class="cls-1" x="0" width="1440" height="1080"/>
    </clipPath>
    <clipPath id="clippath-11">
      <rect class="cls-1" y="-.02" width="1440" height="1080"/>
    </clipPath>
    <linearGradient id="linear-gradient-2" x1="0" y1="1080.7" x2="1" y2="1080.7" gradientTransform="translate(-9.23 979617.77) scale(905.97 -905.97)" gradientUnits="userSpaceOnUse">
      <stop offset="0" stop-color="#e1e1e1"/>
      <stop offset=".02" stop-color="#d2d2d1"/>
      <stop offset=".05" stop-color="#c8c8c7"/>
      <stop offset=".08" stop-color="#c5c5c4"/>
      <stop offset=".22" stop-color="#8d8d8d"/>
      <stop offset=".28" stop-color="#aaa"/>
      <stop offset=".35" stop-color="#cacac9"/>
      <stop offset=".39" stop-color="#d7d7d6"/>
      <stop offset=".44" stop-color="#dddddc"/>
      <stop offset=".52" stop-color="#f0f0f0"/>
      <stop offset=".56" stop-color="#fefefe"/>
      <stop offset=".64" stop-color="#e4e4e4"/>
      <stop offset=".75" stop-color="#bdbcbd"/>
      <stop offset=".78" stop-color="#a7a6a7"/>
      <stop offset=".81" stop-color="#939393"/>
      <stop offset=".84" stop-color="#8d8d8d"/>
      <stop offset=".92" stop-color="#8d8d8d"/>
      <stop offset=".95" stop-color="#b4b4b4"/>
      <stop offset=".98" stop-color="#d4d4d4"/>
      <stop offset="1" stop-color="#e1e1e1"/>
    </linearGradient>
    <clipPath id="clippath-12">
      <path class="cls-1" d="M1140.99,923.62c-108.24,36.47-216.65,121.28-322.06,204.75-134.65,106.61-264.4,211.02-382.67,209.6,12.4,2.28,25.22,2.56,37.99,1.78,12.77-.92,25.49-3.09,37.95-6.19,24.98-6.16,48.94-15.72,72.09-26.55,46.21-22.01,89.16-49.42,130.88-77.78,83.23-57.13,161.66-119.17,243.04-175.26,20.29-14.06,40.82-27.7,61.64-40.67,10.36-6.58,20.85-12.89,31.39-19.08,10.56-6.16,21.23-12.05,31.92-17.89,10.73-5.71,21.53-11.31,32.48-16.47,3.03-1.45,6.08-2.81,9.14-4.18,2.46-1.1,4.92-2.19,7.37-3.34l8.26-3.76,8.37-3.42c22.29-9.27,45.11-17.16,68.36-23.21,46.42-12.26,94.85-17.61,142.96-12.25,12.05,1.17,23.95,3.43,35.87,5.92,11.86,2.71,23.59,6.12,35.18,10.14,11.56,4.08,22.95,8.85,33.99,14.46,11.09,5.54,21.86,11.86,31.91,19.42,0,0-109.53-119.08-356.05-36.03"/>
    </clipPath>
    <clipPath id="clippath-13">
      <polyline class="cls-1" points="2406.32 1955.89 619.72 2762.95 -521.69 236.19 1264.91 -570.87"/>
    </clipPath>
    <clipPath id="clippath-14">
      <polyline class="cls-2" points="1493.08 947.95 758.59 1279.78 671.72 1087.5 1406.21 755.67"/>
    </clipPath>
    <clipPath id="clippath-15">
      <rect class="cls-1" x="0" width="1440" height="1080"/>
    </clipPath>
    <clipPath id="clippath-16">
      <rect class="cls-1" y="-.02" width="1440" height="1080"/>
    </clipPath>
    <linearGradient id="linear-gradient-3" x1="0" y1="1079.27" x2="1" y2="1079.27" gradientTransform="translate(1372.54 -866327.39) rotate(-180) scale(803.2 -803.2)" gradientUnits="userSpaceOnUse">
      <stop offset="0" stop-color="#e1e1e1"/>
      <stop offset=".02" stop-color="#d2d2d1"/>
      <stop offset=".05" stop-color="#c8c8c7"/>
      <stop offset=".08" stop-color="#c5c5c4"/>
      <stop offset=".22" stop-color="#8d8d8d"/>
      <stop offset=".28" stop-color="#aaa"/>
      <stop offset=".35" stop-color="#cacac9"/>
      <stop offset=".39" stop-color="#d7d7d6"/>
      <stop offset=".44" stop-color="#dddddc"/>
      <stop offset=".52" stop-color="#f0f0f0"/>
      <stop offset=".56" stop-color="#fefefe"/>
      <stop offset=".64" stop-color="#e4e4e4"/>
      <stop offset=".75" stop-color="#bdbcbd"/>
      <stop offset=".78" stop-color="#a7a6a7"/>
      <stop offset=".81" stop-color="#939393"/>
      <stop offset=".84" stop-color="#8d8d8d"/>
      <stop offset=".92" stop-color="#8d8d8d"/>
      <stop offset=".95" stop-color="#b4b4b4"/>
      <stop offset=".98" stop-color="#d4d4d4"/>
      <stop offset="1" stop-color="#e1e1e1"/>
    </linearGradient>
    <clipPath id="clippath-17">
      <rect class="cls-1" x="1147" y="935" width="288" height="144"/>
    </clipPath>
    <clipPath id="clippath-18">
      <rect class="cls-1" x="0" width="1440" height="1080"/>
    </clipPath>
    <clipPath id="clippath-19">
      <rect class="cls-1" y="-.02" width="1440" height="1080"/>
    </clipPath>
    <clipPath id="clippath-20">
      <path class="cls-1" d="M1206.52,1017.56c-.77,0-1.4.63-1.4,1.39v.21c0,.77.63,1.4,1.4,1.4h1.81c.77,0,1.4-.63,1.4-1.4v-.21c0-.77-.63-1.39-1.4-1.39"/>
    </clipPath>
    <linearGradient id="linear-gradient-4" x1="0" y1="1080" x2="1" y2="1080" gradientTransform="translate(1232.91 -38354.79) rotate(180) scale(36.46 -36.46)" gradientUnits="userSpaceOnUse">
      <stop offset="0" stop-color="#4353a0"/>
      <stop offset="1" stop-color="#90cadb"/>
    </linearGradient>
    <clipPath id="clippath-21">
      <path class="cls-1" d="M1200.23,1023.55c-.77,0-1.39.63-1.39,1.39v.22c0,.77.63,1.4,1.39,1.4h.28c.77,0,1.4-.63,1.4-1.4v-.22c0-.77-.63-1.39-1.4-1.39"/>
    </clipPath>
    <linearGradient id="linear-gradient-5" x1="0" y1="1080" x2="1" y2="1080" gradientTransform="translate(1233.02 -38348.8) rotate(-180) scale(36.46 -36.46)" gradientUnits="userSpaceOnUse">
      <stop offset="0" stop-color="#4353a0"/>
      <stop offset="1" stop-color="#90cadb"/>
    </linearGradient>
    <clipPath id="clippath-22">
      <path class="cls-1" d="M1196.66,1035.28c-.69,0-1.26.57-1.26,1.26v.19c0,.69.57,1.26,1.26,1.26h2.7c.69,0,1.26-.57,1.26-1.26v-.19c0-.69-.57-1.26-1.26-1.26"/>
    </clipPath>
    <linearGradient id="linear-gradient-6" x1="0" y1="1080" x2="1" y2="1080" gradientTransform="translate(1233.19 -38337.22) rotate(-180) scale(36.46 -36.46)" gradientUnits="userSpaceOnUse">
      <stop offset="0" stop-color="#4353a0"/>
      <stop offset="1" stop-color="#90cadb"/>
    </linearGradient>
    <clipPath id="clippath-23">
      <path class="cls-1" d="M1205.75,1040.56c-.7,0-1.28.58-1.28,1.28v.2c0,.7.57,1.28,1.28,1.28h1.76c.7,0,1.28-.58,1.28-1.28v-.2c0-.7-.57-1.28-1.28-1.28"/>
    </clipPath>
    <linearGradient id="linear-gradient-7" x1="0" y1="1080" x2="1" y2="1080" gradientTransform="translate(1233.25 -38330.85) rotate(180) scale(36.46 -36.46)" gradientUnits="userSpaceOnUse">
      <stop offset="0" stop-color="#4353a0"/>
      <stop offset="1" stop-color="#90cadb"/>
    </linearGradient>
    <clipPath id="clippath-24">
      <rect class="cls-1" x="1147" y="935" width="288" height="144"/>
    </clipPath>
    <clipPath id="clippath-25">
      <rect class="cls-1" x="0" width="1440" height="1080"/>
    </clipPath>
    <clipPath id="clippath-26">
      <rect class="cls-1" y="-.02" width="1440" height="1080"/>
    </clipPath>
    <clipPath id="clippath-27">
      <path class="cls-1" d="M1211.71,1017.56c-.77,0-1.39.63-1.39,1.39v.21c0,.77.63,1.4,1.39,1.4.89,0,1.78-.04,2.68-.04,1.93,0,1.92,3.11,0,3.11-3.44,0-6.88-.09-10.33-.09-.77,0-1.39.63-1.39,1.39v.22c0,.77.63,1.4,1.39,1.4h7.9c1.62.26,1.64,2.92-.22,2.92h-15.11c-.77,0-1.4.63-1.4,1.39v.22c0,.77.63,1.39,1.4,1.39,5.11,0,10.22,0,15.33,0,.77,0,1.4.63,1.4,1.39v.22c0,.39-.35,1.21-.77,1.21h-10.12c-.69,0-1.26.57-1.26,1.26v.19c0,.69.57,1.26,1.26,1.26h12.07c.66,0,1.2.54,1.2,1.2v.18c0,.52-.46,1.17-1,1.17h-3.96c-.7,0-1.28.58-1.28,1.28v.2c0,.7.57,1.28,1.28,1.28h5.53c4.29-2.77,7.14-7.58,7.14-13.06s-2.6-9.87-6.58-12.68"/>
    </clipPath>
    <linearGradient id="linear-gradient-8" x1="0" y1="1080" x2="1" y2="1080" gradientTransform="translate(1233.09 -38343.35) rotate(-180) scale(36.46 -36.46)" gradientUnits="userSpaceOnUse">
      <stop offset="0" stop-color="#4353a0"/>
      <stop offset="1" stop-color="#90cadb"/>
    </linearGradient>
    <clipPath id="clippath-28">
      <rect class="cls-1" x="1147" y="935" width="288" height="144"/>
    </clipPath>
    <clipPath id="clippath-29">
      <rect class="cls-1" x="0" width="1440" height="1080"/>
    </clipPath>
    <clipPath id="clippath-30">
      <rect class="cls-1" y="-.02" width="1440" height="1080"/>
    </clipPath>
    <clipPath id="clippath-31">
      <rect class="cls-1" x="-21" y="-25" width="1474" height="59"/>
    </clipPath>
    <clipPath id="clippath-32">
      <rect class="cls-1" x="0" width="1440" height="1080"/>
    </clipPath>
    <clipPath id="clippath-33">
      <rect class="cls-1" y="-.02" width="1440" height="1080"/>
    </clipPath>
    <linearGradient id="linear-gradient-9" x1="0" y1="514.02" x2="1476" y2="514.02" gradientTransform="translate(-22 1054) scale(1 -1)" gradientUnits="userSpaceOnUse">
      <stop offset="0" stop-color="#142467"/>
      <stop offset=".08" stop-color="#172a79"/>
      <stop offset=".26" stop-color="#2038a0"/>
      <stop offset=".41" stop-color="#2541b9"/>
      <stop offset=".5" stop-color="#2745c2"/>
      <stop offset=".59" stop-color="#2541b9"/>
      <stop offset=".74" stop-color="#2038a0"/>
      <stop offset=".92" stop-color="#172a79"/>
      <stop offset="1" stop-color="#142467"/>
    </linearGradient>
  </defs>
  <!-- Generator: Adobe Illustrator 28.7.2, SVG Export Plug-In . SVG Version: 1.2.0 Build 154)  -->
  <g>
    <g id="Layer_1">
      <g class="cls-50">
        <g class="cls-39">
          <rect class="cls-4" y="-.02" width="1440" height="1080"/>
        </g>
      </g>
      <g class="cls-42">
        <g class="cls-40">
          <g class="cls-41">
            <rect class="cls-13" y="-.02" width="1440" height="1080"/>
          </g>
        </g>
      </g>
      <g class="cls-47">
        <g class="cls-44">
          <polyline class="cls-3" points="769.51 1140.1 900.51 1040.19 1061.7 956.42 1275.76 894.08 1445.67 916.26 1459.93 1087.81 1375.59 1117.19 1047.02 1133.42 769.51 1140.1"/>
        </g>
      </g>
      <g class="cls-43">
        <g class="cls-46">
          <g class="cls-45">
            <g class="cls-20">
              <g class="cls-17">
                <rect class="cls-12" x="-179.93" y="-327.1" width="1799.86" height="1734.16" transform="translate(-179.92 551.24) rotate(-37.59)"/>
              </g>
            </g>
          </g>
        </g>
      </g>
      <g class="cls-24">
        <g class="cls-22">
          <g class="cls-23">
            <g class="cls-21">
              <g class="cls-18">
                <rect class="cls-11" x="-21.81" y="-29.45" width="1483.62" height="1138.88" transform="translate(-21.81 30.37) rotate(-2.38)"/>
              </g>
            </g>
          </g>
        </g>
      </g>
      <g class="cls-15">
        <g class="cls-19">
          <g class="cls-16">
            <path class="cls-14" d="M1195.86,959.63h8.78l9.01,45.03h-7.62l-1.78-10.4h-7.84l-1.83,10.4h-7.73M1203.37,989.04l-3.06-18.9-3.06,18.9h6.11Z"/>
            <rect class="cls-14" x="1218.37" y="959.63" width="8.12" height="45.03"/>
            <path class="cls-48" d="M1246.96,991.54l7.06-1.39c.22,5.34,1.5,8.78,5.11,8.78,2.61,0,3.73-1.78,3.73-4.23,0-3.89-2-6.06-4.95-8.62l-5.67-4.95c-3.22-2.78-5.23-5.89-5.23-10.9,0-7.12,4.45-11.12,11.62-11.12,8.45,0,10.84,5.67,11.29,12.23l-7.06,1.22c-.17-4.22-.78-7.39-4.39-7.39-2.45,0-3.78,1.83-3.78,4.22,0,3.06,1.28,4.73,3.67,6.78l5.61,4.95c3.67,3.17,6.73,7.12,6.73,13.06,0,6.5-4.56,11.06-11.29,11.06-8.23,0-12.12-4.78-12.45-13.73"/>
            <path class="cls-48" d="M1282.2,959.63h8.78l9.01,45.03h-7.62l-1.78-10.4h-7.84l-1.83,10.4h-7.73M1289.71,989.04l-3.06-18.9-3.06,18.9h6.11Z"/>
            <polyline class="cls-48" points="1304.44 959.63 1322.95 959.63 1322.95 965.3 1312.61 965.3 1312.61 978.43 1321.06 978.43 1321.06 984.15 1312.61 984.15 1312.61 1004.67 1304.44 1004.67"/>
            <polyline class="cls-48" points="1327.29 959.63 1346.19 959.63 1346.19 965.41 1335.46 965.41 1335.46 978.37 1343.91 978.37 1343.91 984.1 1335.46 984.1 1335.46 999.05 1346.3 999.05 1346.3 1004.67 1327.29 1004.67"/>
            <polyline class="cls-48" points="1356.97 965.69 1349.8 965.69 1349.8 959.63 1372.2 959.63 1372.2 965.69 1365.2 965.69 1365.2 1004.67 1356.97 1004.67"/>
            <polyline class="cls-48" points="1383.99 987.49 1374.87 959.63 1382.54 959.63 1388.1 977.48 1393.33 959.63 1400.83 959.63 1391.82 987.49 1391.82 1004.67 1383.99 1004.67"/>
            <polyline class="cls-14" points="1248.71 1016.51 1260.6 1016.51 1260.6 1020.15 1253.96 1020.15 1253.96 1028.58 1259.39 1028.58 1259.39 1032.26 1253.96 1032.26 1253.96 1045.43 1248.71 1045.43"/>
            <path class="cls-14" d="M1272.6,1036.36v-10.86c0-5.86,2.14-9.32,8.36-9.32s8.32,3.46,8.32,9.32v10.86c0,5.82-2.14,9.46-8.32,9.46s-8.36-3.61-8.36-9.46M1283.93,1037.61v-13.32c0-2.43-.39-4.25-2.96-4.25s-3,1.82-3,4.25v13.32c0,2.39.39,4.32,3,4.32s2.96-1.93,2.96-4.32"/>
            <path class="cls-14" d="M1302.78,1016.51h6.96c5.79,0,9.07,1.86,9.07,7.68,0,3.46-.86,5.89-3.57,7l4.04,14.25h-5.28l-3.46-13.25h-2.5v13.25h-5.25M1309.71,1028.9c3.04,0,4.14-1.32,4.14-4.43,0-2.93-.82-4.36-3.86-4.36h-1.96v8.78h1.68Z"/>
            <path class="cls-14" d="M1332.21,1036.08v-19.57h5.14v20.18c0,2.75.32,5.21,3,5.21s3.04-2.47,3.04-5.21v-20.18h5.11v19.57c0,6.07-1.68,9.75-8.14,9.75s-8.14-3.68-8.14-9.75"/>
            <polyline class="cls-14" points="1362.68 1016.51 1368.14 1016.51 1372.25 1036.54 1376.49 1016.51 1381.82 1016.51 1382.35 1045.43 1378.42 1045.43 1378 1025.33 1373.89 1045.43 1370.71 1045.43 1366.53 1025.26 1366.14 1045.43 1362.18 1045.43"/>
            <path class="cls-14" d="M1209.49,1042.03v-.2c0-.7.58-1.28,1.28-1.28h3.97c.55,0,1-.65,1-1.17v-.18c0-.66-.54-1.2-1.2-1.2h-12.07c-.69,0-1.26-.57-1.26-1.26v-.19c0-.69.57-1.26,1.26-1.26h10.12c.42,0,.77-.83.77-1.21v-.21c0-.77-.63-1.4-1.39-1.4-5.11,0-10.22,0-15.34,0-.77,0-1.39-.63-1.39-1.4v-.21c0-.77.63-1.4,1.39-1.4h15.11c1.86,0,1.84-2.65.22-2.91h-7.9c-.77,0-1.39-.63-1.39-1.4v-.21c0-.77.63-1.4,1.39-1.4,3.45,0,6.89.09,10.33.09,1.92,0,1.93-3.11,0-3.11-.89,0-1.79.04-2.68.04-.77,0-1.39-.63-1.39-1.4v-.21c0-.77.63-1.4,1.39-1.4h5.15s0,0,0,0c-2.53-1.79-5.62-2.86-8.96-2.86s-6.42,1.06-8.96,2.86c-1.44,1.02-2.69,2.27-3.71,3.71-1.8,2.54-2.87,5.63-2.87,8.98s1.07,6.44,2.87,8.98c1.15,1.62,2.6,3.01,4.28,4.09,2.42,1.56,5.3,2.48,8.39,2.48s5.97-.92,8.4-2.48h-5.52c-.7,0-1.28-.58-1.28-1.28"/>
          </g>
        </g>
      </g>
      <g class="cls-33">
        <rect class="cls-10" x="1205.1" y="1017.53" width="4.65" height="3.07" transform="translate(-15.46 18.61) rotate(-.88)"/>
      </g>
      <g class="cls-34">
        <rect class="cls-7" x="1198.81" y="1023.53" width="3.11" height="3.05" transform="translate(-15.56 18.5) rotate(-.88)"/>
      </g>
      <g class="cls-35">
        <rect class="cls-8" x="1195.38" y="1035.25" width="5.26" height="2.79" transform="translate(-15.74 18.47) rotate(-.88)"/>
      </g>
      <g class="cls-36">
        <rect class="cls-6" x="1204.45" y="1040.52" width="4.36" height="2.82" transform="translate(-15.81 18.6) rotate(-.88)"/>
      </g>
      <g class="cls-37">
        <g class="cls-38">
          <g class="cls-31">
            <path class="cls-14" d="M1223.44,1030.24c0-5.24-2.6-9.87-6.58-12.68h-5.15c-.77,0-1.39.63-1.39,1.4v.21c0,.77.63,1.39,1.39,1.39.88,0,1.78-.04,2.68-.04,1.93,0,1.92,3.11,0,3.11-3.44,0-6.88-.09-10.33-.09-.77,0-1.39.63-1.39,1.39v.21c0,.77.63,1.4,1.39,1.4h7.9c1.62.26,1.64,2.91-.22,2.91h-15.11c-.77,0-1.39.63-1.39,1.4v.21c0,.77.63,1.39,1.39,1.39,5.11,0,10.23,0,15.34,0,.77,0,1.39.63,1.39,1.39v.21c0,.39-.35,1.21-.77,1.21h-10.12c-.69,0-1.26.57-1.26,1.26v.19c0,.69.57,1.26,1.26,1.26h12.07c.66,0,1.2.54,1.2,1.2v.18c0,.52-.46,1.17-1,1.17h-3.97c-.7,0-1.28.58-1.28,1.28v.2c0,.7.58,1.28,1.28,1.28h5.52c4.29-2.76,7.14-7.58,7.14-13.06"/>
          </g>
        </g>
      </g>
      <g class="cls-29">
        <rect class="cls-5" x="1195.03" y="1017.35" width="28.6" height="26.18" transform="translate(-15.64 18.64) rotate(-.88)"/>
      </g>
      <g class="cls-32">
        <g class="cls-30">
          <g class="cls-28">
            <rect class="cls-49" x="1236.46" y="959.23" width="2.48" height="86.68"/>
          </g>
        </g>
      </g>
      <g class="cls-25">
        <g class="cls-26">
          <g class="cls-27">
            <rect class="cls-9" y="-.02" width="1440" height="1080"/>
          </g>
        </g>
      </g>
    </g>
  </g>
</svg>