<?xml version="1.0" encoding="UTF-8"?>
<svg xmlns="http://www.w3.org/2000/svg" xmlns:xlink="http://www.w3.org/1999/xlink" version="1.1" viewBox="0 0 283.46 226.77">
  <defs>
    <style>
      .cls-1 {
        fill: none;
      }

      .cls-2 {
        fill: gray;
      }

      .cls-3 {
        fill: url(#linear-gradient-8);
      }

      .cls-4 {
        fill: url(#linear-gradient-7);
      }

      .cls-5 {
        fill: url(#linear-gradient-5);
      }

      .cls-6 {
        fill: url(#linear-gradient-6);
      }

      .cls-7 {
        fill: url(#linear-gradient-9);
      }

      .cls-8 {
        fill: url(#linear-gradient-4);
      }

      .cls-9 {
        fill: url(#linear-gradient-3);
      }

      .cls-10 {
        fill: url(#linear-gradient-2);
      }

      .cls-11 {
        fill: url(#linear-gradient);
      }

      .cls-12 {
        fill: #ccc;
      }

      .cls-13 {
        clip-path: url(#clippath-1);
      }

      .cls-14 {
        clip-path: url(#clippath-3);
      }

      .cls-15 {
        clip-path: url(#clippath-4);
      }

      .cls-16 {
        clip-path: url(#clippath-2);
      }

      .cls-17 {
        clip-path: url(#clippath-7);
      }

      .cls-18 {
        clip-path: url(#clippath-6);
      }

      .cls-19 {
        clip-path: url(#clippath-8);
      }

      .cls-20 {
        clip-path: url(#clippath-5);
      }

      .cls-21 {
        fill: #1d1d1d;
      }

      .cls-22 {
        clip-path: url(#clippath);
      }
    </style>
    <clipPath id="clippath">
      <path class="cls-1" d="M63.21,122.7h1.67c.71,0,1.29.58,1.29,1.29v.2c0,.71-.58,1.28-1.28,1.28h-1.67c-.71,0-1.29-.58-1.29-1.29v-.2c0-.71.58-1.29,1.29-1.29Z"/>
    </clipPath>
    <linearGradient id="linear-gradient" x1="0" y1="226.77" x2="1" y2="226.77" gradientTransform="translate(61.93 -837.88) scale(4.24)" gradientUnits="userSpaceOnUse">
      <stop offset="0" stop-color="#231f20"/>
      <stop offset=".14" stop-color="#454243"/>
      <stop offset=".45" stop-color="#898889"/>
      <stop offset=".7" stop-color="#bbbbbc"/>
      <stop offset=".89" stop-color="#dadbdc"/>
      <stop offset="1" stop-color="#e6e7e8"/>
    </linearGradient>
    <clipPath id="clippath-1">
      <path class="cls-1" d="M63.21,122.7h1.67c.71,0,1.29.58,1.29,1.29v.2c0,.71-.58,1.28-1.28,1.28h-1.67c-.71,0-1.29-.58-1.29-1.29v-.2c0-.71.58-1.29,1.29-1.29Z"/>
    </clipPath>
    <linearGradient id="linear-gradient-2" x1="0" y1="226.77" x2="1" y2="226.77" gradientTransform="translate(40.79 -7418.35) scale(33.26)" gradientUnits="userSpaceOnUse">
      <stop offset="0" stop-color="#231f20"/>
      <stop offset=".14" stop-color="#454243"/>
      <stop offset=".45" stop-color="#898889"/>
      <stop offset=".7" stop-color="#bbbbbc"/>
      <stop offset=".89" stop-color="#dadbdc"/>
      <stop offset="1" stop-color="#e6e7e8"/>
    </linearGradient>
    <clipPath id="clippath-2">
      <path class="cls-1" d="M57.41,128.22h.26c.71,0,1.29.58,1.29,1.29v.2c0,.71-.58,1.28-1.28,1.28h-.26c-.71,0-1.28-.58-1.28-1.28v-.2c0-.71.58-1.28,1.28-1.28Z"/>
    </clipPath>
    <linearGradient id="linear-gradient-3" x1="0" y1="226.77" x2="1" y2="226.77" gradientTransform="translate(56.13 -511.02) scale(2.82)" gradientUnits="userSpaceOnUse">
      <stop offset="0" stop-color="#231f20"/>
      <stop offset=".14" stop-color="#454243"/>
      <stop offset=".45" stop-color="#898889"/>
      <stop offset=".7" stop-color="#bbbbbc"/>
      <stop offset=".89" stop-color="#dadbdc"/>
      <stop offset="1" stop-color="#e6e7e8"/>
    </linearGradient>
    <clipPath id="clippath-3">
      <path class="cls-1" d="M57.41,128.22h.26c.71,0,1.29.58,1.29,1.29v.2c0,.71-.58,1.28-1.28,1.28h-.26c-.71,0-1.28-.58-1.28-1.28v-.2c0-.71.58-1.28,1.28-1.28Z"/>
    </clipPath>
    <linearGradient id="linear-gradient-4" x1="0" y1="226.77" x2="1" y2="226.77" gradientTransform="translate(27.91 -7375.64) scale(33.1)" gradientUnits="userSpaceOnUse">
      <stop offset="0" stop-color="#231f20"/>
      <stop offset=".14" stop-color="#454243"/>
      <stop offset=".45" stop-color="#898889"/>
      <stop offset=".7" stop-color="#bbbbbc"/>
      <stop offset=".89" stop-color="#dadbdc"/>
      <stop offset="1" stop-color="#e6e7e8"/>
    </linearGradient>
    <clipPath id="clippath-4">
      <path class="cls-1" d="M54.12,139.03h2.49c.64,0,1.16.52,1.16,1.16v.18c0,.64-.52,1.16-1.16,1.16h-2.49c-.64,0-1.16-.52-1.16-1.16v-.18c0-.64.52-1.16,1.16-1.16Z"/>
    </clipPath>
    <linearGradient id="linear-gradient-5" x1="0" y1="226.77" x2="1" y2="226.77" gradientTransform="translate(52.96 -950.94) scale(4.81)" gradientUnits="userSpaceOnUse">
      <stop offset="0" stop-color="#231f20"/>
      <stop offset=".14" stop-color="#454243"/>
      <stop offset=".45" stop-color="#898889"/>
      <stop offset=".7" stop-color="#bbbbbc"/>
      <stop offset=".89" stop-color="#dadbdc"/>
      <stop offset="1" stop-color="#e6e7e8"/>
    </linearGradient>
    <clipPath id="clippath-5">
      <path class="cls-1" d="M54.12,139.03h2.49c.64,0,1.16.52,1.16,1.16v.18c0,.64-.52,1.16-1.16,1.16h-2.49c-.64,0-1.16-.52-1.16-1.16v-.18c0-.64.52-1.16,1.16-1.16Z"/>
    </clipPath>
    <linearGradient id="linear-gradient-6" x1="0" y1="226.77" x2="1" y2="226.77" gradientTransform="translate(23.21 -7417.35) scale(33.33)" gradientUnits="userSpaceOnUse">
      <stop offset="0" stop-color="#231f20"/>
      <stop offset=".14" stop-color="#454243"/>
      <stop offset=".45" stop-color="#898889"/>
      <stop offset=".7" stop-color="#bbbbbc"/>
      <stop offset=".89" stop-color="#dadbdc"/>
      <stop offset="1" stop-color="#e6e7e8"/>
    </linearGradient>
    <clipPath id="clippath-6">
      <path class="cls-1" d="M62.5,143.89h1.62c.65,0,1.18.53,1.18,1.18v.18c0,.65-.53,1.18-1.18,1.18h-1.62c-.65,0-1.18-.53-1.18-1.18v-.18c0-.65.53-1.18,1.18-1.18Z"/>
    </clipPath>
    <linearGradient id="linear-gradient-7" x1="0" y1="226.77" x2="1" y2="226.77" gradientTransform="translate(61.32 -757.17) scale(3.98)" gradientUnits="userSpaceOnUse">
      <stop offset="0" stop-color="#231f20"/>
      <stop offset=".14" stop-color="#454243"/>
      <stop offset=".45" stop-color="#898889"/>
      <stop offset=".7" stop-color="#bbbbbc"/>
      <stop offset=".89" stop-color="#dadbdc"/>
      <stop offset="1" stop-color="#e6e7e8"/>
    </linearGradient>
    <clipPath id="clippath-7">
      <path class="cls-1" d="M62.5,143.89h1.62c.65,0,1.18.53,1.18,1.18v.18c0,.65-.53,1.18-1.18,1.18h-1.62c-.65,0-1.18-.53-1.18-1.18v-.18c0-.65.53-1.18,1.18-1.18Z"/>
    </clipPath>
    <linearGradient id="linear-gradient-8" x1="0" y1="226.77" x2="1" y2="226.77" gradientTransform="translate(39 -7398.87) scale(33.27)" gradientUnits="userSpaceOnUse">
      <stop offset="0" stop-color="#231f20"/>
      <stop offset=".14" stop-color="#454243"/>
      <stop offset=".45" stop-color="#898889"/>
      <stop offset=".7" stop-color="#bbbbbc"/>
      <stop offset=".89" stop-color="#dadbdc"/>
      <stop offset="1" stop-color="#e6e7e8"/>
    </linearGradient>
    <clipPath id="clippath-8">
      <path class="cls-1" d="M67.99,122.7c-.71,0-1.28.58-1.28,1.29v.2c0,.71.58,1.28,1.28,1.28.81,0,1.64-.03,2.47-.03,1.78,0,1.77,2.87,0,2.87-3.17,0-6.33-.08-9.52-.08-.71,0-1.28.58-1.28,1.28v.2c0,.71.58,1.29,1.28,1.29h7.28c1.49.24,1.51,2.69-.21,2.69h-13.92c-.71,0-1.29.58-1.29,1.29v.2c0,.71.58,1.28,1.29,1.28,4.71,0,9.42,0,14.13,0,.71,0,1.29.58,1.29,1.28v.2c0,.36-.33,1.12-.71,1.12h-9.32c-.64,0-1.16.52-1.16,1.16v.18c0,.64.52,1.16,1.16,1.16h11.12c.61,0,1.1.5,1.1,1.1v.17c0,.48-.42,1.08-.92,1.08h-3.65c-.65,0-1.18.53-1.18,1.18v.18c0,.65.53,1.18,1.18,1.18h5.09c3.96-2.55,6.58-6.98,6.58-12.04s-2.4-9.09-6.06-11.68h-4.74Z"/>
    </clipPath>
    <linearGradient id="linear-gradient-9" x1="0" y1="226.77" x2="1" y2="226.77" gradientTransform="translate(43.91 -7479.31) scale(33.58)" gradientUnits="userSpaceOnUse">
      <stop offset="0" stop-color="#fff"/>
      <stop offset=".13" stop-color="#f9f9f9"/>
      <stop offset=".28" stop-color="#ebebeb"/>
      <stop offset=".44" stop-color="#d3d3d3"/>
      <stop offset=".62" stop-color="#b1b1b2"/>
      <stop offset=".8" stop-color="#858586"/>
      <stop offset=".99" stop-color="#515153"/>
      <stop offset="1" stop-color="#4d4d4f"/>
    </linearGradient>
  </defs>
  <!-- Generator: Adobe Illustrator 28.7.2, SVG Export Plug-In . SVG Version: 1.2.0 Build 154)  -->
  <g>
    <g id="Layer_1">
      <path class="cls-21" d="M53.39,69.33h8.09l8.3,41.49h-7.02l-1.64-9.58h-7.22l-1.69,9.58h-7.12M60.31,96.43l-2.82-17.42-2.82,17.42h5.63Z"/>
      <rect class="cls-21" x="74.13" y="69.33" width="7.48" height="41.49"/>
      <g>
        <path class="cls-2" d="M100.47,98.73l6.51-1.28c.2,4.92,1.38,8.09,4.71,8.09,2.41,0,3.43-1.64,3.43-3.89,0-3.59-1.85-5.58-4.56-7.94l-5.22-4.56c-2.97-2.56-4.81-5.43-4.81-10.04,0-6.56,4.1-10.24,10.71-10.24,7.78,0,9.99,5.22,10.4,11.27l-6.5,1.13c-.15-3.89-.72-6.81-4.05-6.81-2.25,0-3.48,1.69-3.48,3.89,0,2.82,1.18,4.35,3.38,6.25l5.17,4.56c3.38,2.92,6.2,6.56,6.2,12.04,0,5.99-4.2,10.19-10.4,10.19-7.58,0-11.17-4.4-11.47-12.65"/>
        <path class="cls-2" d="M132.94,69.33h8.09l8.3,41.49h-7.02l-1.64-9.58h-7.22l-1.69,9.58h-7.12M139.85,96.43l-2.82-17.42-2.82,17.42h5.63Z"/>
        <polyline class="cls-2" points="153.42 69.33 170.48 69.33 170.48 74.56 160.95 74.56 160.95 86.65 168.74 86.65 168.74 91.92 160.95 91.92 160.95 110.82 153.42 110.82"/>
        <polyline class="cls-2" points="174.47 69.33 191.89 69.33 191.89 74.66 182 74.66 182 86.59 189.79 86.59 189.79 91.87 182 91.87 182 105.65 191.99 105.65 191.99 110.82 174.47 110.82"/>
        <polyline class="cls-2" points="201.82 74.92 195.21 74.92 195.21 69.33 215.86 69.33 215.86 74.92 209.4 74.92 209.4 110.82 201.82 110.82"/>
        <polyline class="cls-2" points="226.71 95 218.31 69.33 225.38 69.33 230.5 85.78 235.32 69.33 242.23 69.33 233.93 95 233.93 110.82 226.71 110.82"/>
        <polyline class="cls-21" points="102.08 121.73 113.04 121.73 113.04 125.09 106.92 125.09 106.92 132.85 111.92 132.85 111.92 136.24 106.92 136.24 106.92 148.38 102.08 148.38"/>
        <path class="cls-21" d="M124.1,140.03v-10c0-5.4,1.97-8.59,7.7-8.59s7.67,3.19,7.67,8.59v10c0,5.36-1.98,8.72-7.67,8.72s-7.7-3.32-7.7-8.72M134.53,141.18v-12.27c0-2.24-.36-3.91-2.73-3.91s-2.76,1.68-2.76,3.91v12.27c0,2.2.36,3.98,2.76,3.98s2.73-1.78,2.73-3.98"/>
        <path class="cls-21" d="M151.9,121.73h6.42c5.33,0,8.36,1.71,8.36,7.07,0,3.19-.79,5.43-3.29,6.45l3.72,13.13h-4.87l-3.19-12.21h-2.3v12.21h-4.84M158.28,133.15c2.8,0,3.82-1.22,3.82-4.08,0-2.7-.76-4.01-3.55-4.01h-1.81v8.09h1.55Z"/>
        <path class="cls-21" d="M179.01,139.76v-18.03h4.74v18.59c0,2.53.29,4.8,2.76,4.8s2.8-2.27,2.8-4.8v-18.59h4.71v18.03c0,5.59-1.55,8.98-7.5,8.98s-7.5-3.39-7.5-8.98"/>
        <polyline class="cls-21" points="207.08 121.73 212.11 121.73 215.9 140.19 219.81 121.73 224.71 121.73 225.21 148.38 221.59 148.38 221.19 129.86 217.41 148.38 214.48 148.38 210.63 129.79 210.27 148.38 206.62 148.38"/>
        <path class="cls-21" d="M65.94,145.25v-.18c0-.65.53-1.18,1.18-1.18h3.65c.5,0,.92-.6.92-1.08v-.17c0-.61-.5-1.1-1.1-1.1h-11.12c-.64,0-1.16-.52-1.16-1.16v-.18c0-.64.52-1.16,1.16-1.16h9.32c.39,0,.71-.76.71-1.11v-.2c0-.71-.58-1.29-1.28-1.29-4.71,0-9.42.01-14.13.01-.71,0-1.28-.58-1.28-1.29v-.2c0-.71.58-1.28,1.28-1.28h13.92c1.71,0,1.69-2.44.2-2.69h-7.28c-.71,0-1.28-.58-1.28-1.28v-.2c0-.71.58-1.28,1.28-1.28,3.18,0,6.35.08,9.52.08,1.77,0,1.78-2.87,0-2.87-.82,0-1.65.03-2.47.03-.71,0-1.28-.58-1.28-1.29v-.2c0-.71.58-1.28,1.28-1.28h4.74s0,0,0,0c-2.33-1.65-5.17-2.63-8.25-2.63s-5.92.98-8.25,2.63c-1.33.94-2.48,2.09-3.42,3.42-1.66,2.34-2.64,5.18-2.64,8.27s.99,5.93,2.64,8.27c1.06,1.49,2.4,2.77,3.94,3.77,2.23,1.44,4.88,2.28,7.73,2.28s5.5-.84,7.74-2.28h-5.09c-.65,0-1.18-.53-1.18-1.18"/>
        <path class="cls-21" d="M78.79,134.39c0-4.83-2.4-9.09-6.06-11.68h-4.74c-.71,0-1.28.58-1.28,1.29v.2c0,.71.58,1.28,1.28,1.28.81,0,1.64-.03,2.47-.03,1.78,0,1.77,2.87,0,2.87-3.17,0-6.34-.08-9.52-.08-.71,0-1.28.58-1.28,1.28v.2c0,.71.58,1.28,1.28,1.28h7.28c1.49.24,1.51,2.69-.2,2.69h-13.92c-.71,0-1.28.58-1.28,1.29v.2c0,.71.58,1.29,1.28,1.29,4.71,0,9.42,0,14.13,0,.71,0,1.28.58,1.28,1.28v.2c0,.36-.32,1.12-.71,1.12h-9.32c-.64,0-1.16.52-1.16,1.16v.18c0,.64.52,1.16,1.16,1.16h11.12c.61,0,1.1.5,1.1,1.11v.17c0,.48-.42,1.08-.92,1.08h-3.65c-.65,0-1.18.53-1.18,1.18v.18c0,.65.53,1.18,1.18,1.18h5.09c3.96-2.55,6.58-6.98,6.58-12.04"/>
      </g>
      <g class="cls-22">
        <rect class="cls-11" x="61.93" y="122.7" width="4.24" height="2.77"/>
      </g>
      <g class="cls-13">
        <rect class="cls-10" x="61.93" y="122.7" width="4.24" height="2.77"/>
      </g>
      <g class="cls-16">
        <rect class="cls-9" x="56.13" y="128.22" width="2.83" height="2.77"/>
      </g>
      <g class="cls-14">
        <rect class="cls-8" x="56.13" y="128.22" width="2.83" height="2.77"/>
      </g>
      <g class="cls-15">
        <rect class="cls-5" x="52.96" y="139.03" width="4.81" height="2.5"/>
      </g>
      <g class="cls-20">
        <rect class="cls-6" x="52.96" y="139.03" width="4.81" height="2.5"/>
      </g>
      <g class="cls-18">
        <rect class="cls-4" x="61.32" y="143.89" width="3.98" height="2.54"/>
      </g>
      <g class="cls-17">
        <rect class="cls-3" x="61.32" y="143.89" width="3.98" height="2.54"/>
      </g>
      <g class="cls-19">
        <rect class="cls-7" x="52.8" y="122.7" width="25.99" height="23.72"/>
      </g>
      <rect class="cls-12" x="90.88" y="69.04" width="2.28" height="79.86"/>
    </g>
  </g>
</svg>