<?xml version="1.0" encoding="UTF-8"?>
<svg xmlns="http://www.w3.org/2000/svg" version="1.1" viewBox="0 0 283.46 226.77">
  <defs>
    <style>
      .cls-1 {
        fill: #bbbdbf;
      }

      .cls-2 {
        fill: #fff;
      }
    </style>
  </defs>
  <!-- Generator: Adobe Illustrator 28.7.2, SVG Export Plug-In . SVG Version: 1.2.0 Build 154)  -->
  <g>
    <g id="Layer_1">
      <path class="cls-2" d="M51.64,74.2h8.09l8.3,41.49h-7.02l-1.64-9.58h-7.22l-1.69,9.58h-7.12M58.55,101.29l-2.82-17.42-2.82,17.42h5.63Z"/>
      <rect class="cls-2" x="72.38" y="74.2" width="7.48" height="41.49"/>
      <g>
        <path class="cls-2" d="M98.72,103.6l6.5-1.28c.21,4.92,1.38,8.09,4.71,8.09,2.41,0,3.43-1.64,3.43-3.89,0-3.59-1.85-5.58-4.56-7.94l-5.22-4.56c-2.97-2.56-4.81-5.43-4.81-10.04,0-6.56,4.1-10.24,10.71-10.24,7.79,0,9.99,5.22,10.4,11.27l-6.5,1.13c-.15-3.89-.72-6.81-4.05-6.81-2.25,0-3.48,1.69-3.48,3.89,0,2.82,1.18,4.35,3.38,6.25l5.17,4.56c3.38,2.92,6.2,6.56,6.2,12.04,0,5.99-4.2,10.19-10.4,10.19-7.58,0-11.17-4.4-11.47-12.65"/>
        <path class="cls-2" d="M131.18,74.2h8.09l8.3,41.49h-7.02l-1.64-9.58h-7.22l-1.69,9.58h-7.12M138.1,101.29l-2.82-17.42-2.82,17.42h5.63Z"/>
        <polyline class="cls-2" points="151.67 74.2 168.73 74.2 168.73 79.42 159.2 79.42 159.2 91.51 166.98 91.51 166.98 96.79 159.2 96.79 159.2 115.69 151.67 115.69"/>
        <polyline class="cls-2" points="172.72 74.2 190.14 74.2 190.14 79.53 180.25 79.53 180.25 91.46 188.04 91.46 188.04 96.74 180.25 96.74 180.25 110.51 190.24 110.51 190.24 115.69 172.72 115.69"/>
        <polyline class="cls-2" points="200.07 79.78 193.46 79.78 193.46 74.2 214.1 74.2 214.1 79.78 207.65 79.78 207.65 115.69 200.07 115.69"/>
        <polyline class="cls-2" points="224.96 99.86 216.56 74.2 223.63 74.2 228.75 90.64 233.56 74.2 240.48 74.2 232.18 99.86 232.18 115.69 224.96 115.69"/>
        <polyline class="cls-2" points="100.33 126.6 111.29 126.6 111.29 129.95 105.17 129.95 105.17 137.72 110.17 137.72 110.17 141.1 105.17 141.1 105.17 153.25 100.33 153.25"/>
        <path class="cls-2" d="M122.34,144.89v-10c0-5.4,1.97-8.59,7.7-8.59s7.67,3.19,7.67,8.59v10c0,5.36-1.98,8.72-7.67,8.72s-7.7-3.32-7.7-8.72M132.77,146.04v-12.27c0-2.24-.36-3.91-2.73-3.91s-2.76,1.68-2.76,3.91v12.27c0,2.2.36,3.98,2.76,3.98s2.73-1.78,2.73-3.98"/>
        <path class="cls-2" d="M150.14,126.6h6.42c5.33,0,8.36,1.71,8.36,7.07,0,3.19-.79,5.43-3.29,6.45l3.72,13.13h-4.87l-3.19-12.21h-2.3v12.21h-4.84M156.53,138.01c2.8,0,3.82-1.22,3.82-4.08,0-2.7-.76-4.01-3.55-4.01h-1.81v8.09h1.55Z"/>
        <path class="cls-2" d="M177.26,144.63v-18.03h4.74v18.59c0,2.53.29,4.8,2.76,4.8s2.8-2.27,2.8-4.8v-18.59h4.71v18.03c0,5.59-1.55,8.98-7.5,8.98s-7.5-3.39-7.5-8.98"/>
        <polyline class="cls-2" points="205.32 126.6 210.36 126.6 214.14 145.05 218.06 126.6 222.96 126.6 223.45 153.25 219.83 153.25 219.44 134.72 215.66 153.25 212.73 153.25 208.88 134.66 208.52 153.25 204.86 153.25"/>
        <path class="cls-1" d="M64.19,150.11v-.18c0-.65.53-1.18,1.18-1.18h3.65c.5,0,.92-.6.92-1.08v-.17c0-.61-.5-1.1-1.1-1.1h-11.12c-.64,0-1.16-.52-1.16-1.16v-.18c0-.64.52-1.16,1.16-1.16h9.32c.39,0,.71-.76.71-1.11v-.2c0-.71-.58-1.29-1.28-1.29-4.71,0-9.42.01-14.13.01-.71,0-1.28-.58-1.28-1.29v-.2c0-.71.58-1.28,1.28-1.28h13.92c1.71,0,1.69-2.44.2-2.69h-7.28c-.71,0-1.28-.58-1.28-1.28v-.2c0-.71.58-1.28,1.28-1.28,3.18,0,6.35.08,9.52.08,1.77,0,1.78-2.87,0-2.87-.82,0-1.65.03-2.47.03-.71,0-1.28-.58-1.28-1.29v-.2c0-.71.58-1.28,1.28-1.28h4.74s0,0,0,0c-2.33-1.65-5.17-2.63-8.25-2.63s-5.92.98-8.25,2.63c-1.33.94-2.48,2.09-3.42,3.42-1.66,2.34-2.64,5.18-2.64,8.27s.99,5.93,2.64,8.27c1.06,1.49,2.4,2.77,3.94,3.77,2.23,1.44,4.88,2.28,7.73,2.28s5.5-.84,7.74-2.28h-5.09c-.65,0-1.18-.53-1.18-1.18"/>
        <path class="cls-2" d="M77.04,139.25c0-4.83-2.4-9.09-6.06-11.68h-4.74c-.71,0-1.28.58-1.28,1.29v.2c0,.71.58,1.28,1.28,1.28.81,0,1.64-.03,2.47-.03,1.78,0,1.77,2.87,0,2.87-3.17,0-6.34-.08-9.52-.08-.71,0-1.28.58-1.28,1.28v.2c0,.71.58,1.29,1.28,1.29h7.28c1.49.24,1.51,2.68-.2,2.68h-13.92c-.71,0-1.28.58-1.28,1.29v.2c0,.71.58,1.29,1.28,1.29,4.71,0,9.42,0,14.13,0,.71,0,1.28.58,1.28,1.28v.2c0,.36-.32,1.12-.71,1.12h-9.32c-.64,0-1.16.52-1.16,1.16v.18c0,.64.52,1.16,1.16,1.16h11.12c.61,0,1.1.5,1.1,1.11v.17c0,.48-.42,1.08-.92,1.08h-3.65c-.65,0-1.18.53-1.18,1.18v.18c0,.65.53,1.18,1.18,1.18h5.09c3.96-2.55,6.58-6.98,6.58-12.04"/>
        <path class="cls-2" d="M77.04,139.25c0-4.83-2.4-9.09-6.06-11.68h-4.74c-.71,0-1.28.58-1.28,1.29v.2c0,.71.58,1.28,1.28,1.28.81,0,1.64-.03,2.47-.03,1.78,0,1.77,2.87,0,2.87-3.17,0-6.34-.08-9.52-.08-.71,0-1.28.58-1.28,1.28v.2c0,.71.58,1.29,1.28,1.29h7.28c1.49.24,1.51,2.68-.2,2.68h-13.92c-.71,0-1.28.58-1.28,1.29v.2c0,.71.58,1.29,1.28,1.29,4.71,0,9.42,0,14.13,0,.71,0,1.28.58,1.28,1.28v.2c0,.36-.32,1.12-.71,1.12h-9.32c-.64,0-1.16.52-1.16,1.16v.18c0,.64.52,1.16,1.16,1.16h11.12c.61,0,1.1.5,1.1,1.11v.17c0,.48-.42,1.08-.92,1.08h-3.65c-.65,0-1.18.53-1.18,1.18v.18c0,.65.53,1.18,1.18,1.18h5.09c3.96-2.55,6.58-6.98,6.58-12.04"/>
        <rect class="cls-2" x="89.06" y="74.14" width="2.28" height="79.86"/>
      </g>
    </g>
  </g>
</svg>