<?xml version="1.0" encoding="UTF-8"?>
<svg xmlns="http://www.w3.org/2000/svg" xmlns:xlink="http://www.w3.org/1999/xlink" version="1.1" viewBox="0 0 283.46 226.77">
  <defs>
    <style>
      .cls-1 {
        fill: none;
      }

      .cls-2 {
        fill: #001e69;
      }

      .cls-3 {
        fill: url(#linear-gradient-5);
      }

      .cls-4 {
        fill: url(#linear-gradient-4);
      }

      .cls-5 {
        fill: url(#linear-gradient-3);
      }

      .cls-6 {
        fill: url(#linear-gradient-2);
      }

      .cls-7 {
        fill: url(#linear-gradient);
      }

      .cls-8 {
        clip-path: url(#clippath-1);
      }

      .cls-9 {
        clip-path: url(#clippath-3);
      }

      .cls-10 {
        clip-path: url(#clippath-4);
      }

      .cls-11 {
        clip-path: url(#clippath-2);
      }

      .cls-12 {
        clip-path: url(#clippath);
      }
    </style>
    <clipPath id="clippath">
      <rect class="cls-1" x="133.34" y="72.13" width="14.75" height="9.62" rx="4.47" ry="4.47"/>
    </clipPath>
    <linearGradient id="linear-gradient" x1="0" y1="226.77" x2="1" y2="226.77" gradientTransform="translate(222.36 26562.93) rotate(-180) scale(116.8)" gradientUnits="userSpaceOnUse">
      <stop offset="0" stop-color="blue"/>
      <stop offset="1" stop-color="aqua"/>
    </linearGradient>
    <clipPath id="clippath-1">
      <path class="cls-1" d="M117.65,91.32h.89c2.47,0,4.47,2,4.47,4.47v.69c0,2.47-2,4.47-4.47,4.47h-.89c-2.47,0-4.47-2-4.47-4.47v-.69c0-2.47,2-4.47,4.47-4.47Z"/>
    </clipPath>
    <linearGradient id="linear-gradient-2" x1="0" y1="226.77" x2="1" y2="226.77" gradientTransform="translate(222.7 26582.12) rotate(180) scale(116.8)" gradientUnits="userSpaceOnUse">
      <stop offset="0" stop-color="blue"/>
      <stop offset="1" stop-color="aqua"/>
    </linearGradient>
    <clipPath id="clippath-2">
      <rect class="cls-1" x="102.18" y="128.91" width="16.73" height="8.69" rx="4.04" ry="4.04"/>
    </clipPath>
    <linearGradient id="linear-gradient-3" x1="0" y1="226.77" x2="1" y2="226.77" gradientTransform="translate(223.24 26619.47) rotate(-180) scale(116.8)" gradientUnits="userSpaceOnUse">
      <stop offset="0" stop-color="blue"/>
      <stop offset="1" stop-color="aqua"/>
    </linearGradient>
    <clipPath id="clippath-3">
      <path class="cls-1" d="M135.33,145.79h5.64c2.26,0,4.1,1.84,4.1,4.1v.63c0,2.26-1.84,4.1-4.1,4.1h-5.64c-2.26,0-4.1-1.83-4.1-4.1v-.63c0-2.26,1.84-4.1,4.1-4.1Z"/>
    </clipPath>
    <linearGradient id="linear-gradient-4" x1="0" y1="226.77" x2="1" y2="226.77" gradientTransform="translate(223.51 26635.97) rotate(180) scale(116.79)" gradientUnits="userSpaceOnUse">
      <stop offset="0" stop-color="blue"/>
      <stop offset="1" stop-color="aqua"/>
    </linearGradient>
    <clipPath id="clippath-4">
      <path class="cls-1" d="M154.44,72.13c-2.46,0-4.47,2.01-4.47,4.47v.69c0,2.46,2.01,4.47,4.47,4.47,2.83,0,5.71-.11,8.57-.11,6.19,0,6.14,9.97,0,9.97-11.01,0-22.03-.29-33.09-.29-2.46,0-4.47,2.01-4.47,4.47v.69c0,2.46,2.01,4.47,4.47,4.47h25.3c5.18.84,5.25,9.34-.71,9.34h-48.42c-2.46,0-4.47,2.01-4.47,4.47v.69c0,2.46,2.01,4.47,4.47,4.47,16.38,0,32.76-.03,49.13-.03,2.46,0,4.47,2.01,4.47,4.47v.69c0,1.24-1.13,3.88-2.48,3.88h-32.41c-2.22,0-4.04,1.82-4.04,4.04v.62c0,2.22,1.82,4.04,4.04,4.04h38.68c2.11,0,3.84,1.73,3.84,3.84v.59c0,1.67-1.46,3.76-3.21,3.76h-12.7c-2.25,0-4.1,1.84-4.1,4.1v.63c0,2.25,1.84,4.1,4.1,4.1h17.7c13.76-8.86,22.89-24.27,22.89-41.85s-8.34-31.61-21.08-40.63h-16.49Z"/>
    </clipPath>
    <linearGradient id="linear-gradient-5" x1="0" y1="226.77" x2="1" y2="226.77" gradientTransform="translate(222.93 26599.36) rotate(-180) scale(116.8)" gradientUnits="userSpaceOnUse">
      <stop offset="0" stop-color="blue"/>
      <stop offset="1" stop-color="aqua"/>
    </linearGradient>
  </defs>
  <!-- Generator: Adobe Illustrator 28.7.2, SVG Export Plug-In . SVG Version: 1.2.0 Build 154)  -->
  <g>
    <g id="Layer_1">
      <path class="cls-2" d="M147.32,150.51v-.63c0-2.25,1.84-4.1,4.1-4.1h12.7c1.75,0,3.21-2.09,3.21-3.76v-.59c0-2.11-1.73-3.84-3.84-3.84h-38.68c-2.22,0-4.04-1.82-4.04-4.04v-.62c0-2.22,1.82-4.04,4.04-4.04h32.41c1.35,0,2.48-2.64,2.48-3.88v-.69c0-2.46-2.01-4.47-4.47-4.47-16.38,0-32.75.03-49.13.03-2.46,0-4.47-2.01-4.47-4.47v-.69c0-2.46,2.01-4.47,4.47-4.47h48.42c5.96,0,5.89-8.5.71-9.34h-25.3c-2.46,0-4.47-2.01-4.47-4.47v-.69c0-2.46,2.01-4.47,4.47-4.47,11.06,0,22.08.29,33.09.29,6.14,0,6.19-9.97,0-9.97-2.86,0-5.74.11-8.58.11-2.46,0-4.47-2.01-4.47-4.47v-.69c0-2.46,2.01-4.47,4.47-4.47h16.49s0,0-.01-.01c-8.12-5.74-18-9.14-28.69-9.14s-20.58,3.4-28.69,9.14c-4.61,3.26-8.63,7.28-11.9,11.89-5.77,8.13-9.19,18.03-9.19,28.76s3.42,20.63,9.19,28.76c3.69,5.19,8.33,9.64,13.7,13.1,7.76,5,16.98,7.93,26.89,7.93s19.13-2.93,26.9-7.93h-17.7c-2.25,0-4.1-1.84-4.1-4.1"/>
      <g class="cls-12">
        <rect class="cls-7" x="133.27" y="72.01" width="14.9" height="9.85" transform="translate(-1.16 2.16) rotate(-.88)"/>
      </g>
      <g class="cls-8">
        <rect class="cls-6" x="113.11" y="91.24" width="9.97" height="9.77" transform="translate(-1.46 1.82) rotate(-.88)"/>
      </g>
      <g class="cls-11">
        <rect class="cls-5" x="102.12" y="128.78" width="16.86" height="8.95" transform="translate(-2.03 1.71) rotate(-.88)"/>
      </g>
      <g class="cls-9">
        <rect class="cls-4" x="131.17" y="145.68" width="13.97" height="9.03" transform="translate(-2.28 2.13) rotate(-.88)"/>
      </g>
      <path class="cls-2" d="M192,112.76c0-16.79-8.34-31.61-21.08-40.63h-16.49c-2.46,0-4.47,2.01-4.47,4.47v.69c0,2.46,2.01,4.47,4.47,4.47,2.83,0,5.71-.11,8.57-.11,6.19,0,6.14,9.97,0,9.97-11.01,0-22.03-.29-33.09-.29-2.46,0-4.47,2.01-4.47,4.47v.69c0,2.46,2.01,4.47,4.47,4.47h25.3c5.18.84,5.24,9.34-.71,9.34h-48.42c-2.46,0-4.47,2.01-4.47,4.47v.69c0,2.46,2.01,4.47,4.47,4.47,16.38,0,32.76-.03,49.13-.03,2.46,0,4.47,2.01,4.47,4.47v.69c0,1.24-1.13,3.88-2.48,3.88h-32.41c-2.22,0-4.04,1.82-4.04,4.04v.62c0,2.22,1.82,4.04,4.04,4.04h38.68c2.11,0,3.84,1.73,3.84,3.84v.59c0,1.67-1.46,3.76-3.21,3.76h-12.7c-2.25,0-4.1,1.84-4.1,4.1v.63c0,2.25,1.84,4.1,4.1,4.1h17.7c13.76-8.86,22.89-24.28,22.89-41.85"/>
      <g class="cls-10">
        <rect class="cls-3" x="101" y="71.44" width="91.63" height="83.86" transform="translate(-1.72 2.26) rotate(-.88)"/>
      </g>
    </g>
  </g>
</svg>